<svg width="27" height="27" viewBox="0 0 27 27" fill="none" xmlns="http://www.w3.org/2000/svg">
<path fill-rule="evenodd" clip-rule="evenodd" d="M9.68211 11.5915C9.59977 11.6423 9.52816 11.709 9.4714 11.7878C9.41464 11.8665 9.37383 11.9558 9.35132 12.0504C9.3288 12.1451 9.32501 12.2433 9.34016 12.3395C9.35532 12.4356 9.38912 12.5278 9.43964 12.6107C10.1149 13.7204 10.6887 14.8218 11.0708 15.8226C11.1408 16.006 11.2801 16.1538 11.4582 16.2337C11.6363 16.3135 11.8386 16.3187 12.0205 16.2481C12.2024 16.1776 12.3491 16.0371 12.4283 15.8576C12.5074 15.678 12.5126 15.4741 12.4426 15.2907C12.0179 14.1767 11.3949 12.9907 10.6924 11.8359C10.5906 11.6685 10.4269 11.5486 10.2375 11.5028C10.048 11.457 9.84825 11.4889 9.68211 11.5915ZM17.334 10.8848C17.4912 11.0008 17.5963 11.1749 17.6262 11.3689C17.6561 11.563 17.6083 11.7611 17.4934 11.9196C16.6433 13.0922 15.8946 14.6604 15.3677 15.8574C15.3286 15.9463 15.2724 16.0266 15.2025 16.0936C15.1325 16.1606 15.0502 16.2131 14.9601 16.2481C14.87 16.283 14.774 16.2997 14.6776 16.2973C14.5811 16.2948 14.486 16.2732 14.3978 16.2337C14.3097 16.1942 14.23 16.1376 14.1636 16.0671C14.0971 15.9966 14.045 15.9135 14.0103 15.8227C13.9757 15.7319 13.9591 15.6352 13.9615 15.5379C13.964 15.4407 13.9854 15.3448 14.0246 15.2559C14.5566 14.0485 15.3575 12.3552 16.3075 11.0456C16.4225 10.8871 16.5953 10.7811 16.7877 10.751C16.9802 10.7208 17.1767 10.769 17.334 10.8848Z" fill="#191919" fill-opacity="0.7"/>
<path fill-rule="evenodd" clip-rule="evenodd" d="M15.6876 4.47185C17.4173 2.48814 26.6667 0 26.6667 0C26.6667 0 25.0942 9.92221 23.7108 11.5089C22.6805 12.6911 19.3975 11.9526 17.7889 11.4985C18.9913 9.64888 20.385 7.84221 21.6103 6.40814C21.7353 6.25871 21.7965 6.06585 21.7806 5.87144C21.7647 5.67703 21.673 5.49676 21.5253 5.36977C21.3777 5.24278 21.1861 5.17931 20.9921 5.19315C20.7981 5.20699 20.6173 5.29702 20.4891 5.4437C19.2535 6.88962 17.8214 8.73999 16.5672 10.6637C15.8626 9.34814 14.3197 6.04073 15.6876 4.47185ZM3.69293 17.7778H0V26.6666H3.69293V25.1533C4.44629 25.1222 5.5586 25.0822 5.94341 25.0977C7.26326 25.1518 8.2478 25.4674 9.24489 25.7866C10.174 26.0837 11.1128 26.3844 12.341 26.4785C12.6498 26.5022 12.9504 26.5326 13.2421 26.5614C14.2931 26.6681 15.226 26.7629 15.997 26.4785C16.9808 26.1155 22.6044 23.3548 23.3076 22.6281C24.0107 21.9022 23.6591 19.9407 21.4796 20.3037C20.4042 20.4829 19.1582 20.9985 18.0274 21.4659C16.8671 21.9452 15.8286 22.3748 15.223 22.3377C14.028 22.2652 10.8653 21.6844 10.8653 21.6844L14.497 21.7289C14.497 21.7289 15.0103 21.7555 15.7156 21.2481C16.421 20.7407 17.051 19.2866 15.9963 19.2866C14.9416 19.2866 13.8175 18.9237 13.8175 18.9237L9.31801 17.9066C9.31801 17.9066 7.77141 17.6163 7.13918 17.9066C6.61774 18.1459 4.44481 18.9266 3.69293 19.1955V17.7778ZM2.12565 2.71851C2.12565 2.71851 9.75894 4.77185 11.1859 6.40814C12.2886 7.67258 11.1002 10.3059 10.502 11.4392C9.71785 10.2043 8.87131 9.01044 7.96566 7.86221C7.90557 7.78585 7.83107 7.72211 7.74642 7.67462C7.66177 7.62713 7.56862 7.59683 7.4723 7.58545C7.37597 7.57406 7.27835 7.58182 7.18502 7.60827C7.09168 7.63473 7.00445 7.67936 6.92831 7.73962C6.85217 7.79988 6.78861 7.87459 6.74126 7.95949C6.69391 8.04439 6.6637 8.13781 6.65235 8.23441C6.641 8.33102 6.64874 8.42892 6.67511 8.52253C6.70149 8.61614 6.74599 8.70363 6.80608 8.77999C7.68632 9.89609 8.50872 11.0569 9.27 12.2578C7.89032 12.6326 5.37765 13.1489 4.5652 12.2163C3.42335 10.9067 2.12565 2.71777 2.12565 2.71777" fill="#191919" fill-opacity="0.7"/>
</svg>
