<svg width="28" height="24" viewBox="0 0 28 24" fill="none" xmlns="http://www.w3.org/2000/svg">
<path fill-rule="evenodd" clip-rule="evenodd" d="M9.58875 21.232C5.53536 18.1369 0 13.0242 0 8.19009C0 0.114055 7.57514 -2.90142 13.773 3.33541C19.9708 -2.90142 27.546 0.114055 27.546 8.19009C27.546 13.0242 22.0092 18.1369 17.9572 21.232C16.1227 22.632 15.2054 23.3333 13.773 23.3333C12.3406 23.3333 11.4233 22.6333 9.58875 21.232ZM19.9708 4.46089C20.2448 4.46089 20.5075 4.56935 20.7012 4.7624C20.895 4.95545 21.0038 5.21728 21.0038 5.4903V7.20597H22.7254C22.9994 7.20597 23.2621 7.31443 23.4558 7.50748C23.6496 7.70053 23.7584 7.96237 23.7584 8.23538C23.7584 8.5084 23.6496 8.77023 23.4558 8.96328C23.2621 9.15633 22.9994 9.26479 22.7254 9.26479H21.0038V10.9805C21.0038 11.2535 20.895 11.5153 20.7012 11.7084C20.5075 11.9014 20.2448 12.0099 19.9708 12.0099C19.6969 12.0099 19.4341 11.9014 19.2404 11.7084C19.0467 11.5153 18.9378 11.2535 18.9378 10.9805V9.26479H17.2162C16.9423 9.26479 16.6795 9.15633 16.4858 8.96328C16.2921 8.77023 16.1833 8.5084 16.1833 8.23538C16.1833 7.96237 16.2921 7.70053 16.4858 7.50748C16.6795 7.31443 16.9423 7.20597 17.2162 7.20597H18.9378V5.4903C18.9378 5.21728 19.0467 4.95545 19.2404 4.7624C19.4341 4.56935 19.6969 4.46089 19.9708 4.46089Z" fill="#191919" fill-opacity="0.7"/>
</svg>
