<svg width="40" height="40" viewBox="0 0 40 40" fill="none" xmlns="http://www.w3.org/2000/svg">
<path d="M32.3908 15.7987C33.9858 14.2037 33.2585 12.3408 32.3908 11.4348L28.5626 7.60689C26.9548 6.01191 25.1045 6.73922 24.1985 7.60689L22.0292 9.78882H18.7243C16.2998 9.78882 14.8961 11.0648 14.1815 12.5322L8.51587 18.1976V23.3015L7.60987 24.1947C6.01481 25.8024 6.74216 27.6526 7.60987 28.5585L11.438 32.3865C12.1271 33.0755 12.8672 33.3307 13.569 33.3307C14.475 33.3307 15.3045 32.8841 15.8021 32.3865L19.2475 28.9286H23.8285C25.9978 28.9286 27.0952 27.576 27.4907 26.249C28.9327 25.8662 29.7238 24.7689 30.0428 23.697C32.0207 23.1867 32.7608 21.311 32.7608 19.9967V16.1687H32.008L32.3908 15.7987ZM30.2087 19.9967C30.2087 20.5709 29.9663 21.2727 28.9327 21.2727H27.6566V22.5487C27.6566 23.1229 27.4142 23.8246 26.3806 23.8246H25.1045V25.1006C25.1045 25.6748 24.8621 26.3766 23.8285 26.3766H18.2011L14.0156 30.5618C13.6201 30.9319 13.3904 30.715 13.25 30.5746L9.43462 26.7722C9.06457 26.3766 9.2815 26.1469 9.42186 26.0066L11.068 24.3478V19.2439L13.6201 16.6919V18.7207C13.6201 20.2647 14.6409 22.5487 17.4482 22.5487C20.2555 22.5487 21.2764 20.2647 21.2764 18.7207H30.2087V19.9967ZM30.5788 13.9868L28.4095 16.1687H18.7243V18.7207C18.7243 19.2949 18.4818 19.9967 17.4482 19.9967C16.4146 19.9967 16.1722 19.2949 16.1722 18.7207V14.8928C16.1722 14.3058 16.3891 12.3408 18.7243 12.3408H23.0756L25.985 9.43155C26.3806 9.06151 26.6103 9.27843 26.7506 9.41879L30.566 13.2212C30.9361 13.6168 30.7192 13.8465 30.5788 13.9868Z" fill="#191919" fill-opacity="0.7"/>
</svg>
