<svg width="40" height="40" viewBox="0 0 40 40" fill="none" xmlns="http://www.w3.org/2000/svg">
<path d="M30.667 22.6641H33.3337V25.3307H30.667C28.827 25.3307 27.0137 24.8641 25.3337 23.9974C22.0003 25.7307 18.0003 25.7307 14.667 23.9974C12.987 24.8641 11.1603 25.3307 9.33366 25.3307H6.66699V22.6641H9.33366C11.187 22.6641 13.0403 22.0374 14.667 20.8907C17.9203 23.1707 22.0803 23.1707 25.3337 20.8907C26.9603 22.0374 28.8137 22.6641 30.667 22.6641ZM30.667 30.6641H33.3337V33.3307H30.667C28.827 33.3307 27.0137 32.8641 25.3337 31.9974C22.0003 33.7307 18.0003 33.7307 14.667 31.9974C12.987 32.8641 11.1603 33.3307 9.33366 33.3307H6.66699V30.6641H9.33366C11.187 30.6641 13.0403 30.0374 14.667 28.8907C17.9203 31.1707 22.0803 31.1707 25.3337 28.8907C26.9603 30.0374 28.8137 30.6641 30.667 30.6641ZM13.3337 6.66406L8.00033 11.9974H12.0003V18.6641H14.667V11.9974H18.667M26.667 6.66406L21.3337 11.9974H25.3337V18.6641H28.0003V11.9974H32.0003" fill="#191919" fill-opacity="0.7"/>
</svg>
