<svg width="27" height="27" viewBox="0 0 27 27" fill="none" xmlns="http://www.w3.org/2000/svg">
<path d="M25.7238 9.13465C27.3189 7.53967 26.5915 5.67673 25.7238 4.77078L21.8956 0.942829C20.2878 -0.652151 18.4375 0.0751601 17.5315 0.942829L15.3623 3.12476H12.0573C9.63279 3.12476 8.22913 4.40075 7.51454 5.86813L1.84887 11.5335V16.6374L0.942879 17.5306C-0.652185 19.1384 0.075164 20.9885 0.942879 21.8945L4.77103 25.7224C5.4601 26.4115 6.20021 26.6667 6.90204 26.6667C7.80803 26.6667 8.63747 26.2201 9.13513 25.7224L12.5805 22.2645H17.1615C19.3308 22.2645 20.4282 20.912 20.8238 19.585C22.2657 19.2022 23.0568 18.1048 23.3759 17.033C25.3537 16.5226 26.0938 14.6469 26.0938 13.3326V9.50468H25.341L25.7238 9.13465ZM23.5417 13.3326C23.5417 13.9068 23.2993 14.6086 22.2657 14.6086H20.9896V15.8846C20.9896 16.4588 20.7472 17.1606 19.7136 17.1606H18.4375V18.4366C18.4375 19.0108 18.1951 19.7126 17.1615 19.7126H11.5341L7.34865 23.8978C6.95308 24.2678 6.72339 24.0509 6.58302 23.9105L2.76763 20.1081C2.39758 19.7126 2.61451 19.4829 2.75487 19.3425L4.40098 17.6837V12.5798L6.95308 10.0278V12.0567C6.95308 13.6006 7.97392 15.8846 10.7812 15.8846C13.5885 15.8846 14.6094 13.6006 14.6094 12.0567H23.5417V13.3326ZM23.9118 7.32275L21.7425 9.50468H12.0573V12.0567C12.0573 12.6308 11.8148 13.3326 10.7812 13.3326C9.74763 13.3326 9.50518 12.6308 9.50518 12.0567V8.2287C9.50518 7.64174 9.72211 5.67673 12.0573 5.67673H16.4086L19.318 2.76749C19.7136 2.39745 19.9433 2.61437 20.0836 2.75473L23.899 6.55716C24.2691 6.95271 24.0522 7.18239 23.9118 7.32275Z" fill="#191919" fill-opacity="0.7"/>
</svg>
