<svg width="40" height="40" viewBox="0 0 40 40" fill="none" xmlns="http://www.w3.org/2000/svg">
<path d="M27.5643 6.66406C27.1984 7.03992 26.8249 7.40813 26.4691 7.7929C25.8033 8.51918 25.185 9.28778 24.6179 10.0939C23.6523 11.475 22.4821 13.5123 22.4821 15.4935C22.4821 16.8451 23.0176 18.1414 23.9707 19.0972C24.9238 20.0529 26.2164 20.5898 27.5643 20.5898C28.9122 20.5898 30.2049 20.0529 31.158 19.0972C32.1111 18.1414 32.6466 16.8451 32.6466 15.4935C32.6466 13.5123 31.4764 11.475 30.5108 10.0939C29.9437 9.28778 29.3253 8.51918 28.6596 7.7929C28.3038 7.40813 27.9303 7.03992 27.5643 6.66406ZM16.682 22.8195C16.4734 22.819 16.2667 22.8596 16.0738 22.9392C15.8808 23.0188 15.7054 23.1357 15.5576 23.2833L12.9529 25.8951V30.7826H20.1024L27.4767 28.9338L31.963 27.0138C32.0904 26.9438 32.1932 26.8361 32.2572 26.7053C32.3212 26.5746 32.3434 26.4272 32.3208 26.2833C32.2981 26.1394 32.2317 26.0061 32.1306 25.9015C32.0295 25.7969 31.8986 25.7261 31.7559 25.6989C31.6491 25.6802 31.5395 25.6846 31.4345 25.7117L31.4091 25.7181L23.2622 27.5973H18.6704V25.0492H22.6409C22.9358 25.0492 23.2186 24.9317 23.427 24.7226C23.6355 24.5136 23.7527 24.23 23.7527 23.9343C23.7527 23.6387 23.6355 23.3551 23.427 23.146C23.2186 22.937 22.9358 22.8195 22.6409 22.8195H16.682ZM26.2773 24.2873L30.7903 23.2463C31.5673 23.0403 32.3929 23.1304 33.1074 23.4994C33.8219 23.8683 34.3746 24.4899 34.6587 25.2438C34.9427 25.9977 34.9378 26.8305 34.645 27.5811C34.3522 28.3316 33.7923 28.9466 33.0735 29.3072L33.0392 29.3237L28.2873 31.3572L20.4149 33.3307H5.96484V24.0936H11.1563L13.7635 21.4792C14.1477 21.0953 14.6035 20.791 15.1049 20.5838C15.6063 20.3765 16.1435 20.2704 16.6858 20.2713H22.6409C23.1503 20.2713 23.6541 20.378 24.12 20.5848C24.5858 20.7916 25.0033 21.0938 25.3458 21.472C25.6882 21.8501 25.948 22.296 26.1084 22.7808C26.2688 23.2657 26.3263 23.7788 26.2773 24.2873ZM10.4118 26.6418H8.50596V30.7826H10.4118V26.6418Z" fill="#191919" fill-opacity="0.7"/>
</svg>
