<svg width="40" height="40" viewBox="0 0 40 40" fill="none" xmlns="http://www.w3.org/2000/svg">
<path fill-rule="evenodd" clip-rule="evenodd" d="M16.2323 29.5679C12.1789 26.4728 6.64355 21.3601 6.64355 16.526C6.64355 8.44999 14.2187 5.43452 20.4165 11.6713C26.6144 5.43452 34.1895 8.44999 34.1895 16.526C34.1895 21.3601 28.6528 26.4728 24.6008 29.5679C22.7662 30.9679 21.8489 31.6693 20.4165 31.6693C18.9841 31.6693 18.0669 30.9693 16.2323 29.5679ZM26.6144 12.7968C26.8883 12.7968 27.1511 12.9053 27.3448 13.0983C27.5385 13.2914 27.6474 13.5532 27.6474 13.8262V15.5419H29.369C29.6429 15.5419 29.9057 15.6504 30.0994 15.8434C30.2931 16.0365 30.4019 16.2983 30.4019 16.5713C30.4019 16.8443 30.2931 17.1062 30.0994 17.2992C29.9057 17.4923 29.6429 17.6007 29.369 17.6007H27.6474V19.3164C27.6474 19.5894 27.5385 19.8512 27.3448 20.0443C27.1511 20.2373 26.8883 20.3458 26.6144 20.3458C26.3404 20.3458 26.0777 20.2373 25.884 20.0443C25.6902 19.8512 25.5814 19.5894 25.5814 19.3164V17.6007H23.8598C23.5858 17.6007 23.3231 17.4923 23.1294 17.2992C22.9356 17.1062 22.8268 16.8443 22.8268 16.5713C22.8268 16.2983 22.9356 16.0365 23.1294 15.8434C23.3231 15.6504 23.5858 15.5419 23.8598 15.5419H25.5814V13.8262C25.5814 13.5532 25.6902 13.2914 25.884 13.0983C26.0777 12.9053 26.3404 12.7968 26.6144 12.7968Z" fill="#191919" fill-opacity="0.7"/>
</svg>
