<svg width="40" height="40" viewBox="0 0 40 40" fill="none" xmlns="http://www.w3.org/2000/svg">
<path d="M19.0666 6.66406C13.1023 6.66406 8.2666 11.3907 8.2666 17.2227C8.2666 19.2134 8.82955 21.0761 9.80965 22.6641M23.7916 18.6641V21.3307M27.8416 18.6641V21.3307M23.7916 7.9974V10.6641M27.8416 7.9974V10.6641M21.7666 12.6641H19.0666M21.7666 16.6641H19.0666M32.5666 12.6641H29.8666M32.5666 16.6641H29.8666M23.1166 29.3307L22.9411 30.1934C22.7521 31.1361 22.6563 31.6067 22.4416 31.9801C22.1108 32.5555 21.5753 32.9889 20.9391 33.1961C20.5273 33.3307 20.0386 33.3307 19.0666 33.3307C18.0946 33.3307 17.6059 33.3307 17.1942 33.1974C16.5577 32.9899 16.0221 32.556 15.6916 31.9801C15.477 31.6067 15.3811 31.1361 15.1921 30.1934L15.0166 29.3307M27.1666 10.6641H24.4666C23.1936 10.6641 22.5577 10.6641 22.1622 11.0547C21.7666 11.4454 21.7666 12.0734 21.7666 13.3307V15.9974C21.7666 17.2547 21.7666 17.8827 22.1622 18.2734C22.5577 18.6641 23.1936 18.6641 24.4666 18.6641H27.1666C28.4397 18.6641 29.0755 18.6641 29.4711 18.2734C29.8666 17.8827 29.8666 17.2547 29.8666 15.9974V13.3307C29.8666 12.0734 29.8666 11.4454 29.4711 11.0547C29.0755 10.6641 28.4397 10.6641 27.1666 10.6641ZM12.8337 26.7947C12.7095 26.4267 12.6474 26.2414 12.6541 26.0921C12.6617 25.9377 12.7145 25.7887 12.806 25.6633C12.8976 25.5379 13.0239 25.4414 13.1698 25.3854C13.3102 25.3307 13.5073 25.3307 13.8988 25.3307H24.2344C24.6273 25.3307 24.823 25.3307 24.9634 25.3841C25.1095 25.4401 25.236 25.5369 25.3275 25.6625C25.4191 25.7882 25.4717 25.9374 25.4791 26.0921C25.4859 26.2414 25.4237 26.4254 25.2995 26.7947C25.07 27.4761 24.9553 27.8174 24.7785 28.0934C24.4086 28.6702 23.8287 29.0849 23.1585 29.2521C22.8372 29.3307 22.4754 29.3307 21.7504 29.3307H16.3828C15.6579 29.3307 15.2947 29.3307 14.9748 29.2507C14.3047 29.0839 13.7249 28.6697 13.3548 28.0934C13.1779 27.8174 13.0632 27.4761 12.8337 26.7947Z" stroke="#191919" stroke-opacity="0.7" stroke-width="2.08333" stroke-linecap="round" stroke-linejoin="round"/>
</svg>
