<svg width="19" height="31" viewBox="0 0 19 31" fill="none" xmlns="http://www.w3.org/2000/svg">
<path fill-rule="evenodd" clip-rule="evenodd" d="M9.84629 0.317197C9.76897 0.21894 9.66762 0.138987 9.55052 0.083861C9.43342 0.0287353 9.30389 0 9.1725 0C9.04111 0 8.91158 0.0287353 8.79448 0.083861C8.67738 0.138987 8.57603 0.21894 8.49871 0.317197C8.48537 0.333384 8.04868 0.889148 7.61032 1.59676C7.39197 1.9498 7.16446 2.35525 6.98945 2.75994C6.82027 3.14997 6.67026 3.6063 6.67026 4.04182C6.67026 4.47656 6.82027 4.93289 6.98945 5.32293C7.16446 5.72761 7.39197 6.13229 7.61032 6.4861L7.71949 6.6603C7.48859 6.52316 7.25406 6.39131 7.01612 6.26487C6.6117 6.04643 6.1912 5.85454 5.7577 5.69061C5.33518 5.5349 4.84098 5.39615 4.37095 5.39615C3.90009 5.39615 3.40673 5.5349 2.9842 5.69061C2.55071 5.85454 2.1302 6.04643 1.72579 6.26487C1.25033 6.5173 0.788632 6.79128 0.342369 7.0858C0.2363 7.15734 0.150003 7.25104 0.0905069 7.35927C0.0310111 7.4675 0 7.58721 0 7.70862C0 7.83004 0.0310111 7.94974 0.0905069 8.05798C0.150003 8.16621 0.2363 8.25991 0.342369 8.33145C0.359037 8.34378 0.959907 8.74769 1.72579 9.15238C2.1302 9.37082 2.55071 9.56271 2.9842 9.72664C3.40673 9.88235 3.90092 10.0211 4.37095 10.0211C4.84181 10.0211 5.33518 9.88235 5.7577 9.72664C6.19523 9.56477 6.63359 9.35433 7.01612 9.15238C7.46997 8.91169 7.91132 8.65138 8.3387 8.3723V11.5627H4.16844C3.94741 11.5627 3.73544 11.644 3.57915 11.7885C3.42286 11.9331 3.33505 12.1291 3.33505 12.3336C3.33505 12.538 3.42286 12.7341 3.57915 12.8786C3.73544 13.0232 3.94741 13.1044 4.16844 13.1044H5.00266V16.4482C3.73507 17.1246 2.68239 18.0977 1.95048 19.2698C1.21856 20.4419 0.833231 21.7716 0.833233 23.1251C0.833233 27.3824 4.5668 30.8333 9.17292 30.8333C13.779 30.8333 17.5118 27.3824 17.5118 23.1251C17.5118 21.7716 17.1264 20.4419 16.3945 19.2698C15.6626 18.0977 14.6099 17.1246 13.3423 16.4482V13.1044H14.1757C14.3968 13.1044 14.6087 13.0232 14.765 12.8786C14.9213 12.7341 15.0091 12.538 15.0091 12.3336C15.0091 12.1291 14.9213 11.9331 14.765 11.7885C14.6087 11.644 14.3968 11.5627 14.1757 11.5627H10.0063V8.38078C10.1913 8.5018 10.7005 8.82709 11.3164 9.15161C11.7208 9.37031 12.1413 9.56246 12.5748 9.72664C12.9973 9.88235 13.4915 10.0211 13.9615 10.0211C14.4324 10.0211 14.9258 9.88235 15.3475 9.72664C15.781 9.56271 16.2015 9.37082 16.6059 9.15238C17.0819 8.89999 17.5442 8.62601 17.991 8.33145C18.097 8.25991 18.1833 8.16621 18.2428 8.05798C18.3023 7.94974 18.3333 7.83004 18.3333 7.70862C18.3333 7.58721 18.3023 7.4675 18.2428 7.35927C18.1833 7.25104 18.097 7.15734 17.991 7.0858C17.5444 6.79126 17.0825 6.51728 16.6067 6.26487C16.2023 6.04643 15.7818 5.85454 15.3483 5.69061C14.9258 5.5349 14.4316 5.39615 13.9615 5.39615C13.4907 5.39615 12.9973 5.5349 12.5748 5.69061C12.1413 5.85454 11.7208 6.04643 11.3164 6.26487C11.0664 6.39745 10.833 6.53003 10.633 6.64797L10.7347 6.4861C10.953 6.13306 11.1805 5.72761 11.3556 5.32215C11.5247 4.93289 11.6747 4.47656 11.6747 4.04182C11.6747 3.60707 11.5247 3.14997 11.3556 2.75994C11.178 2.35897 10.9703 1.97003 10.7338 1.59599C10.2963 0.889148 9.85879 0.333384 9.84629 0.317197ZM6.6711 13.1044H8.33786V20.8126H2.98587C3.5458 19.5374 4.5493 18.4712 5.83771 17.7825L6.6711 17.337V13.1044ZM15.3583 20.8126C14.7984 19.5374 13.7949 18.4712 12.5065 17.7825L11.6731 17.337V13.1044H10.0063V20.8126H15.3583Z" fill="#191919" fill-opacity="0.7"/>
</svg>
