<svg width="40" height="40" viewBox="0 0 40 40" fill="none" xmlns="http://www.w3.org/2000/svg">
<path d="M17.5116 6.66406L14.6068 9.62703V12.59H10.2495C8.57917 12.59 7.51889 14.0715 7.3446 15.553L5.89217 30.3678C5.71788 31.8492 6.67648 33.3307 8.79703 33.3307H32.036C34.1565 33.3307 35.1151 31.8492 34.9408 30.3678L33.4884 15.553C33.3141 14.0715 32.1231 12.59 30.5835 12.59H26.2262V9.62703L23.3214 6.66406H17.5116ZM17.5116 9.62703H23.3214V12.59H17.5116V9.62703ZM18.9641 17.0344H21.8689V21.4789H26.2262V24.4418H21.8689V28.8863H18.9641V24.4418H14.6068V21.4789H18.9641V17.0344Z" fill="#191919" fill-opacity="0.7"/>
</svg>
