<svg width="24" height="24" viewBox="0 0 24 24" fill="none" xmlns="http://www.w3.org/2000/svg">
<path fill-rule="evenodd" clip-rule="evenodd" d="M17.4781 1.04645L13.7923 6.42761H19.5664L21.5966 3.51812C21.9485 3.00924 22.069 2.391 21.9315 1.79941C21.794 1.20781 21.4098 0.691325 20.8634 0.363561C20.317 0.0357975 19.6532 -0.0763908 19.018 0.0516763C18.3828 0.179743 17.8301 0.537575 17.4781 1.04645ZM0.554712 14.6118L0.0115739 10.1116C-0.0176769 9.86765 0.00866812 9.62074 0.0888871 9.38696C0.169106 9.15318 0.301393 8.9378 0.477102 8.75489C0.652811 8.57199 0.867986 8.42567 1.10856 8.32551C1.34914 8.22535 1.60971 8.1736 1.87323 8.17365H21.4599C21.7236 8.17358 21.9843 8.22537 22.2251 8.32563C22.4658 8.42589 22.681 8.57237 22.8568 8.75547C23.0325 8.93858 23.1648 9.15418 23.2449 9.38817C23.3249 9.62216 23.3511 9.86926 23.3215 10.1133L22.7784 14.6136C22.644 15.7261 22.2242 16.7922 21.5543 17.7218C20.8844 18.6514 19.9842 19.4173 18.9296 19.9546C19.2218 20.4901 19.4278 21.0762 19.5289 21.6989C19.5616 21.9016 19.5468 22.1084 19.4857 22.3052C19.4246 22.5021 19.3186 22.6843 19.175 22.8395C19.0313 22.9947 18.8533 23.1191 18.6532 23.2044C18.4531 23.2896 18.2357 23.3336 18.0157 23.3333H5.31747C5.09745 23.3336 4.87997 23.2896 4.67989 23.2044C4.47981 23.1191 4.30185 22.9947 4.15817 22.8395C4.01449 22.6843 3.90848 22.5021 3.84738 22.3052C3.78629 22.1084 3.77155 21.9016 3.80417 21.6989C3.90272 21.0914 4.10505 20.5025 4.4035 19.9546C3.34869 19.4171 2.4483 18.651 1.77841 17.7211C1.10851 16.7911 0.688791 15.7247 0.554712 14.6118ZM12.8371 12.3879C12.8371 12.0987 12.7138 11.8214 12.4943 11.617C12.2747 11.4125 11.977 11.2977 11.6666 11.2977C11.3561 11.2977 11.0584 11.4125 10.8389 11.617C10.6193 11.8214 10.496 12.0987 10.496 12.3879V14.6624H8.05376C7.74331 14.6624 7.44557 14.7773 7.22605 14.9817C7.00653 15.1862 6.8832 15.4635 6.8832 15.7526C6.8832 16.0418 7.00653 16.319 7.22605 16.5235C7.44557 16.7279 7.74331 16.8428 8.05376 16.8428H10.496V19.1191C10.496 19.4082 10.6193 19.6855 10.8389 19.89C11.0584 20.0944 11.3561 20.2093 11.6666 20.2093C11.977 20.2093 12.2747 20.0944 12.4943 19.89C12.7138 19.6855 12.8371 19.4082 12.8371 19.1191V16.8445H15.2794C15.5898 16.8445 15.8875 16.7297 16.1071 16.5252C16.3266 16.3208 16.4499 16.0435 16.4499 15.7544C16.4499 15.4652 16.3266 15.1879 16.1071 14.9835C15.8875 14.779 15.5898 14.6642 15.2794 14.6642H12.8371V12.3844V12.3879Z" fill="#191919" fill-opacity="0.7"/>
</svg>
