<svg width="40" height="40" viewBox="0 0 40 40" fill="none" xmlns="http://www.w3.org/2000/svg">
<path d="M26.0608 13.9375H13.9375V26.0596H26.0596L26.0608 13.9375Z" fill="#191919" fill-opacity="0.7"/>
<path d="M30.91 11.6521V9.22838H28.4863V6.80469H26.0614V9.22838H23.6377V6.80469H21.2128V9.22838H18.7891V6.80469H16.363V9.22838H13.9393V6.80469H11.5144V9.22838H9.09068V11.6521H6.66699V14.077H9.09068V16.5007H6.66699V18.9256H9.09068V21.3493H6.66699V23.7742H9.09068V26.1979H6.66699V28.6228H9.09068V31.0464H11.5144V33.4714H13.9393V31.0477H16.363V33.4714H18.7879V31.0477H21.2116V33.4714H23.6365V31.0477H26.0602V33.4714H28.4851V31.0477H30.9088V28.624H33.3337V26.1991H30.91V23.7754H33.3337V21.3505H30.91V18.9268H33.3337V16.5007H30.91V14.077H33.3337V11.6521H30.91ZM28.4863 28.6228H11.5144V11.6533H28.4839L28.4863 28.6228Z" fill="#191919" fill-opacity="0.7"/>
</svg>
